# xmcd
#
# Track frame offsets:
#	150
#	18482
#	34086
#	52330
#	68452
#	90593
#	105902
#	131396
#	152586
#	178963
#	199099
#
# Disc length: 3060 seconds
#
# Revision: 0
# Processed by: cddbd v1.5.2PL0 Copyright (c) Steve Scherf et al.
# Submitted via: dBpowerAMP V4.0
#
DISCID=8a0bf20b
DTITLE=The Great Outdoors - What We Did In Our Holidays
DYEAR=2000
DGENRE=Farmercore
TTITLE0=Brave New Girl
TTITLE1=Rainy Days
TTITLE2=It Looks So Easy
TTITLE3=My Heart Alive
TTITLE4=5 O'Clock Shadow
TTITLE5=The Sunrise Coast
TTITLE6=Welcome To My Garden
TTITLE7=Head In The Clouds
TTITLE8=Boys Left Home
TTITLE9=Mood Of The Nation
TTITLE10=Burn The Bridges
EXTD=
EXTT0=
EXTT1=
EXTT2=
EXTT3=
EXTT4=
EXTT5=
EXTT6=
EXTT7=
EXTT8=
EXTT9=
EXTT10=
PLAYORDER=
